<svg width="80" height="81" viewBox="0 0 80 81" fill="none" xmlns="http://www.w3.org/2000/svg">
<mask id="path-1-inside-1_4472_3" fill="white">
<path d="M44.705 1.61824C44.5174 2.19259 44.3423 2.67909 44.3173 2.69937C44.286 2.71288 44.2673 2.49665 44.2673 2.21962C44.2673 1.93582 44.2485 1.70608 44.2235 1.70608C44.1923 1.70608 43.8609 2.50341 43.4732 3.48318C43.0856 4.45619 42.179 6.74007 41.4537 8.56446C40.7284 10.3821 39.8406 12.6052 39.4842 13.4971C36.7394 20.396 34.8511 25.1394 34.3509 26.3963C34.0258 27.2071 33.7444 27.9031 33.7257 27.9301C33.7132 27.9571 33.1567 27.3558 32.4939 26.5855C26.2165 19.2608 23.4904 16.0985 23.4717 16.1188C23.4592 16.1323 23.4779 20.0244 23.5154 24.7746C23.553 29.5248 23.5655 33.4236 23.553 33.4438C23.5342 33.4573 22.7902 33.1871 21.9023 32.8357C21.0145 32.4776 18.3322 31.41 15.9437 30.4572C13.5553 29.5045 10.279 28.1936 8.65963 27.5517C7.0465 26.903 4.45799 25.876 2.91364 25.2611C1.36928 24.6462 0.0812818 24.1394 0.0500195 24.1394C0.0250098 24.1394 0 24.2137 0 24.3016C0 24.4232 0.919109 25.4097 4.04533 28.6396C6.2712 30.9437 10.1039 34.9033 12.5674 37.444C15.0246 39.9846 17.0442 42.0861 17.0567 42.1131C17.0629 42.1334 14.8558 43.4442 12.1485 45.0119C9.43494 46.5862 7.19656 47.8971 7.17155 47.9241C7.14029 47.9512 7.50918 48.1201 7.98437 48.2958C8.45955 48.4715 10.7479 49.3093 13.0676 50.1607C18.4447 52.1405 18.0383 51.9783 17.9007 52.0797C17.8382 52.127 13.9179 54.6609 9.19109 57.7218C4.46424 60.776 0.556467 63.3166 0.5127 63.3639C0.450176 63.4247 0.506448 63.4383 0.79406 63.418L1.1567 63.391L0.593982 63.7356L0.0312622 64.0802L1.06292 64.0464C6.9152 63.8437 23.6405 63.3166 23.6655 63.3369C23.678 63.3572 23.803 66.6073 23.9469 70.5602C24.0844 74.5198 24.2157 78.2091 24.247 78.77L24.2907 79.7835L24.5096 79.4322C24.6284 79.2362 24.7472 79.074 24.7659 79.074C24.7847 79.074 24.8097 79.2767 24.8159 79.5335C24.8222 79.7835 24.8472 80.1551 24.8722 80.3579L24.916 80.7295L26.7667 78.2632C27.7796 76.905 30.0742 73.8508 31.8562 71.4724C33.6381 69.0939 35.1137 67.1479 35.1387 67.1479C35.1637 67.1479 36.5705 68.4722 38.2649 70.0872C39.9594 71.7021 41.4037 73.0805 41.4787 73.1413L41.6225 73.2562L41.9351 72.4319C42.1102 71.9791 42.6229 70.6345 43.0793 69.4453C43.5358 68.256 43.9172 67.2763 43.9234 67.2627C43.9297 67.2492 46.6995 69.0398 50.0821 71.2359C53.4584 73.4387 56.2282 75.2225 56.2407 75.209C56.2595 75.1887 55.9344 68.5668 55.8656 67.6006C55.8406 67.256 55.8531 67.0465 55.8906 67.0465C55.9218 67.0465 59.7984 68.7358 64.5064 70.8034C73.1911 74.6144 73.3161 74.6752 77.4615 76.8712L78.5494 77.4456L78.2118 77.0672C78.0242 76.8577 77.9179 76.7091 77.968 76.7226C78.018 76.7428 78.3556 76.8915 78.7183 77.0469C79.0809 77.2023 79.5186 77.3915 79.6874 77.4658L80 77.601L79.8374 77.405C79.7437 77.3037 75.8984 72.844 71.2841 67.4925L62.8996 57.7759L63.5998 57.2556C63.9875 56.9718 66.8073 54.9177 69.8648 52.6878L75.4232 48.6336L75.0293 48.539L74.6354 48.4512L74.8793 48.289C75.0106 48.2012 75.1419 48.1268 75.1731 48.1268C75.1981 48.1268 75.2169 48.0998 75.2169 48.0728C75.2169 48.039 74.8167 47.9512 74.329 47.8701C73.8351 47.789 71.6217 47.4174 69.4021 47.0457C67.1825 46.6741 64.6252 46.2416 63.7124 46.093C62.7995 45.9443 62.0055 45.8024 61.9429 45.7754C61.8554 45.7349 63.1559 44.3024 68.3079 38.7346L74.7792 31.7411C74.7792 31.7411 74.5729 31.7546 74.329 31.7816C74.0789 31.8019 73.8664 31.8154 73.8538 31.8086C73.8476 31.7951 73.9852 31.6532 74.1602 31.4775C74.3353 31.3019 74.4728 31.1532 74.4603 31.1397C74.4478 31.1329 73.041 31.3762 71.3404 31.6802C62.7183 33.2344 54.5088 34.6871 54.49 34.6669C54.4838 34.6533 54.6964 33.7614 54.959 32.687C55.4091 30.8559 55.7093 29.6329 57.3474 22.9569C57.6913 21.5447 58.1665 19.619 58.3978 18.6797C58.6292 17.7473 58.798 16.977 58.773 16.977C58.7542 16.977 58.6166 17.0851 58.4728 17.2202C58.179 17.4905 58.1602 17.4635 58.329 16.977C58.3978 16.7945 58.4353 16.6391 58.4228 16.6391C58.4103 16.6391 56.0281 18.6054 53.1333 21.0109C50.2321 23.4096 47.6999 25.5111 47.4998 25.68C47.2997 25.8422 47.1247 25.9638 47.1122 25.9503C47.0996 25.9368 46.9183 23.7678 46.712 21.1325C46.4994 18.4905 46.2743 15.6188 46.2056 14.7471C46.0117 12.2808 45.2177 2.15205 45.1676 1.46959C45.0926 0.456033 45.0864 0.46279 44.705 1.61824ZM41.3224 72.5332C41.3912 72.7157 41.4349 72.8576 41.4224 72.8576C41.3662 72.8576 40.9535 71.9116 40.9597 71.7967C40.9597 71.6818 41.0285 71.817 41.3224 72.5332Z"/>
</mask>
<path d="M44.705 1.61824C44.5174 2.19259 44.3423 2.67909 44.3173 2.69937C44.286 2.71288 44.2673 2.49665 44.2673 2.21962C44.2673 1.93582 44.2485 1.70608 44.2235 1.70608C44.1923 1.70608 43.8609 2.50341 43.4732 3.48318C43.0856 4.45619 42.179 6.74007 41.4537 8.56446C40.7284 10.3821 39.8406 12.6052 39.4842 13.4971C36.7394 20.396 34.8511 25.1394 34.3509 26.3963C34.0258 27.2071 33.7444 27.9031 33.7257 27.9301C33.7132 27.9571 33.1567 27.3558 32.4939 26.5855C26.2165 19.2608 23.4904 16.0985 23.4717 16.1188C23.4592 16.1323 23.4779 20.0244 23.5154 24.7746C23.553 29.5248 23.5655 33.4236 23.553 33.4438C23.5342 33.4573 22.7902 33.1871 21.9023 32.8357C21.0145 32.4776 18.3322 31.41 15.9437 30.4572C13.5553 29.5045 10.279 28.1936 8.65963 27.5517C7.0465 26.903 4.45799 25.876 2.91364 25.2611C1.36928 24.6462 0.0812818 24.1394 0.0500195 24.1394C0.0250098 24.1394 0 24.2137 0 24.3016C0 24.4232 0.919109 25.4097 4.04533 28.6396C6.2712 30.9437 10.1039 34.9033 12.5674 37.444C15.0246 39.9846 17.0442 42.0861 17.0567 42.1131C17.0629 42.1334 14.8558 43.4442 12.1485 45.0119C9.43494 46.5862 7.19656 47.8971 7.17155 47.9241C7.14029 47.9512 7.50918 48.1201 7.98437 48.2958C8.45955 48.4715 10.7479 49.3093 13.0676 50.1607C18.4447 52.1405 18.0383 51.9783 17.9007 52.0797C17.8382 52.127 13.9179 54.6609 9.19109 57.7218C4.46424 60.776 0.556467 63.3166 0.5127 63.3639C0.450176 63.4247 0.506448 63.4383 0.79406 63.418L1.1567 63.391L0.593982 63.7356L0.0312622 64.0802L1.06292 64.0464C6.9152 63.8437 23.6405 63.3166 23.6655 63.3369C23.678 63.3572 23.803 66.6073 23.9469 70.5602C24.0844 74.5198 24.2157 78.2091 24.247 78.77L24.2907 79.7835L24.5096 79.4322C24.6284 79.2362 24.7472 79.074 24.7659 79.074C24.7847 79.074 24.8097 79.2767 24.8159 79.5335C24.8222 79.7835 24.8472 80.1551 24.8722 80.3579L24.916 80.7295L26.7667 78.2632C27.7796 76.905 30.0742 73.8508 31.8562 71.4724C33.6381 69.0939 35.1137 67.1479 35.1387 67.1479C35.1637 67.1479 36.5705 68.4722 38.2649 70.0872C39.9594 71.7021 41.4037 73.0805 41.4787 73.1413L41.6225 73.2562L41.9351 72.4319C42.1102 71.9791 42.6229 70.6345 43.0793 69.4453C43.5358 68.256 43.9172 67.2763 43.9234 67.2627C43.9297 67.2492 46.6995 69.0398 50.0821 71.2359C53.4584 73.4387 56.2282 75.2225 56.2407 75.209C56.2595 75.1887 55.9344 68.5668 55.8656 67.6006C55.8406 67.256 55.8531 67.0465 55.8906 67.0465C55.9218 67.0465 59.7984 68.7358 64.5064 70.8034C73.1911 74.6144 73.3161 74.6752 77.4615 76.8712L78.5494 77.4456L78.2118 77.0672C78.0242 76.8577 77.9179 76.7091 77.968 76.7226C78.018 76.7428 78.3556 76.8915 78.7183 77.0469C79.0809 77.2023 79.5186 77.3915 79.6874 77.4658L80 77.601L79.8374 77.405C79.7437 77.3037 75.8984 72.844 71.2841 67.4925L62.8996 57.7759L63.5998 57.2556C63.9875 56.9718 66.8073 54.9177 69.8648 52.6878L75.4232 48.6336L75.0293 48.539L74.6354 48.4512L74.8793 48.289C75.0106 48.2012 75.1419 48.1268 75.1731 48.1268C75.1981 48.1268 75.2169 48.0998 75.2169 48.0728C75.2169 48.039 74.8167 47.9512 74.329 47.8701C73.8351 47.789 71.6217 47.4174 69.4021 47.0457C67.1825 46.6741 64.6252 46.2416 63.7124 46.093C62.7995 45.9443 62.0055 45.8024 61.9429 45.7754C61.8554 45.7349 63.1559 44.3024 68.3079 38.7346L74.7792 31.7411C74.7792 31.7411 74.5729 31.7546 74.329 31.7816C74.0789 31.8019 73.8664 31.8154 73.8538 31.8086C73.8476 31.7951 73.9852 31.6532 74.1602 31.4775C74.3353 31.3019 74.4728 31.1532 74.4603 31.1397C74.4478 31.1329 73.041 31.3762 71.3404 31.6802C62.7183 33.2344 54.5088 34.6871 54.49 34.6669C54.4838 34.6533 54.6964 33.7614 54.959 32.687C55.4091 30.8559 55.7093 29.6329 57.3474 22.9569C57.6913 21.5447 58.1665 19.619 58.3978 18.6797C58.6292 17.7473 58.798 16.977 58.773 16.977C58.7542 16.977 58.6166 17.0851 58.4728 17.2202C58.179 17.4905 58.1602 17.4635 58.329 16.977C58.3978 16.7945 58.4353 16.6391 58.4228 16.6391C58.4103 16.6391 56.0281 18.6054 53.1333 21.0109C50.2321 23.4096 47.6999 25.5111 47.4998 25.68C47.2997 25.8422 47.1247 25.9638 47.1122 25.9503C47.0996 25.9368 46.9183 23.7678 46.712 21.1325C46.4994 18.4905 46.2743 15.6188 46.2056 14.7471C46.0117 12.2808 45.2177 2.15205 45.1676 1.46959C45.0926 0.456033 45.0864 0.46279 44.705 1.61824ZM41.3224 72.5332C41.3912 72.7157 41.4349 72.8576 41.4224 72.8576C41.3662 72.8576 40.9535 71.9116 40.9597 71.7967C40.9597 71.6818 41.0285 71.817 41.3224 72.5332Z" fill="#FFE550" stroke="#DF9814" stroke-width="2" mask="url(#path-1-inside-1_4472_3)"/>
</svg>
