<svg aria-hidden="true" style="width:0;height:0;position:absolute;overflow:hidden" xmlns="http://www.w3.org/2000/svg"><defs><symbol id="star" viewBox="0 0 32 32"><path d="M13.902 2.7c.527-1.23 2.321-1.23 2.848 0l3.109 7.257a1.54 1.54 0 0 0 1.301.917l8.071.628c1.367.106 1.922 1.763.88 2.629l-6.149 5.113a1.471 1.471 0 0 0-.497 1.484l1.879 7.645c.318 1.295-1.133 2.319-2.304 1.625l-6.91-4.097a1.58 1.58 0 0 0-1.608 0l-6.91 4.097c-1.171.694-2.622-.33-2.304-1.625l1.879-7.645a1.471 1.471 0 0 0-.497-1.484L.541 14.131c-1.042-.866-.487-2.523.88-2.629l8.071-.628a1.54 1.54 0 0 0 1.301-.917L13.902 2.7z"/></symbol><symbol id="rightArrow" viewBox="0 0 18 32"><path d="M17.653 15.035 2.791.875c-.239-.228-.563-.368-.92-.368S1.19.647.95.876h.001L.935.892A1.224 1.224 0 0 0 .934 2.67l13.995 13.333L.934 29.331a1.224 1.224 0 0 0-.001 1.779h.001l.016.016c.239.228.563.368.92.368s.681-.14.921-.369H2.79l14.862-14.16c.255-.243.413-.586.413-.965s-.158-.722-.413-.965z"/></symbol><symbol id="leftArrow" viewBox="0 0 18 32"><path d="m.48 16.965 14.862 14.16c.239.228.563.368.92.368s.681-.14.921-.369h-.001l.016-.016a1.223 1.223 0 0 0 0-1.779h-.001L3.202 15.996 17.197 2.669a1.223 1.223 0 0 0 0-1.779h-.001L17.18.874c-.239-.228-.563-.368-.92-.368s-.681.14-.921.369h.001L.478 15.035c-.255.243-.413.586-.413.965s.158.722.413.965h.001z"/></symbol><symbol id="delivery" viewBox="0 0 32 32"><path fill="#fff" style="fill:var(--color1,#fff)" d="M32 16c0 8.837-7.163 16-16 16S0 24.837 0 16 7.163 0 16 0s16 7.163 16 16z"/><path fill="#7eb101" style="fill:var(--color2,#7eb101)" d="m9.489 14.422 2.356 1c.267-.533.552-1.059.856-1.578s.626-1.015.967-1.489l-1.756-.356-2.422 2.422zm3.422 1.8 2.956 2.956c.844-.385 1.637-.822 2.378-1.311s1.341-.963 1.8-1.422c1.2-1.2 2.081-2.43 2.644-3.689s.867-2.682.911-4.267c-1.585.044-3.007.348-4.267.911s-2.489 1.444-3.689 2.644c-.459.459-.933 1.059-1.422 1.8s-.926 1.533-1.311 2.378zM18 14.089c-.296-.296-.444-.663-.444-1.1s.148-.804.444-1.1c.296-.296.663-.444 1.1-.444s.804.148 1.1.444c.296.296.444.663.444 1.1s-.148.804-.444 1.1c-.296.296-.663.444-1.1.444s-.804-.148-1.1-.444zm-.333 8.511 2.422-2.422-.356-1.756c-.474.341-.97.663-1.489.967s-1.044.589-1.578.856l1 2.356zm7.244-15.422c.133 2.015-.119 3.852-.756 5.511s-1.689 3.222-3.156 4.689l-.089.089.489 2.444c.044.222.033.437-.033.644s-.181.393-.344.556l-3.8 3.822-1.889-4.4-3.778-3.778-4.4-1.889 3.822-3.8c.163-.163.348-.278.556-.344s.422-.078.644-.033l2.444.489c.015-.015.03-.026.044-.033s.03-.019.044-.033c1.467-1.467 3.03-2.522 4.689-3.167s3.496-.9 5.511-.767zM8.644 19.444c.518-.519 1.152-.781 1.9-.789s1.381.248 1.9.767c.518.518.774 1.152.767 1.9s-.27 1.381-.789 1.9c-.385.385-.981.704-1.789.956s-2.019.489-3.633.711c.222-1.615.456-2.83.7-3.644s.559-1.415.944-1.8zm.934.956c-.207.222-.393.57-.556 1.044s-.304 1.081-.422 1.822c.741-.118 1.348-.259 1.822-.422s.822-.348 1.044-.556c.281-.252.426-.567.433-.944s-.122-.707-.389-.989c-.282-.267-.611-.396-.989-.389s-.693.152-.944.433z"/></symbol><symbol id="order" viewBox="0 0 32 32"><path fill="#fff" style="fill:var(--color1,#fff)" d="M32 16c0 8.837-7.163 16-16 16S0 24.837 0 16 7.163 0 16 0s16 7.163 16 16z"/><path fill="#7eb101" style="fill:var(--color2,#7eb101)" d="M15.667 6.222c1.349 0 2.5.471 3.456 1.411s1.433 2.085 1.433 3.433a4.9 4.9 0 0 1-.5 2.178 4.951 4.951 0 0 1-1.4 1.725l-.011.008h-.755v-1.111c.418-.33.752-.747.98-1.224l.009-.021c.218-.451.345-.981.345-1.54v-.016.001c0-.978-.349-1.807-1.045-2.489s-1.533-1.023-2.511-1.023c-.977 0-1.815.341-2.511 1.023s-1.045 1.511-1.045 2.489c0 .548.115 1.067.345 1.555.236.498.571.915.981 1.239l.007.005v1.6a4.875 4.875 0 0 1-1.943-1.801l-.012-.021a4.84 4.84 0 0 1-.711-2.541v-.039.002c0-1.348.478-2.493 1.433-3.433s2.107-1.411 3.455-1.411zm-.844 18.667c-.252 0-.489-.048-.711-.144a1.86 1.86 0 0 1-.578-.389l-4.577-4.577 1.244-1.289c.207-.207.441-.367.7-.477a1.191 1.191 0 0 1 .82-.054l-.009-.002 1.733.4v-7.244c0-.623.215-1.149.645-1.578s.955-.645 1.577-.645c.623 0 1.149.215 1.578.645s.645.955.645 1.578v3.822h.577c.074 0 .141.015.2.045s.127.059.2.089l3.289 1.6c.355.163.618.426.789.789s.219.737.145 1.123l-.8 4.844c-.071.431-.298.8-.619 1.053l-.004.003a1.783 1.783 0 0 1-1.143.411h-5.701zm-.178-1.334h6.245l.955-5.533L17.778 16h-1.222v-4.889c0-.267-.082-.482-.245-.645s-.378-.245-.645-.245-.481.082-.644.245c-.163.163-.245.378-.245.645v8.867l-3.422-.733-.511.511 3.8 3.8zm6.244 0z"/></symbol><symbol id="small-arrow" viewBox="0 0 34 32"><path d="M21.931 15.709a.902.902 0 0 1 0 1.277l-9.206 9.206a.902.902 0 0 1-1.277 0l-.426-.426a.902.902 0 0 1 0-1.277l8.142-8.142-8.142-8.142a.902.902 0 0 1 0-1.277l.426-.426a.902.902 0 0 1 1.277 0l9.206 9.206z"/></symbol><symbol id="mob-menu-button" viewBox="0 0 32 32"><path d="M2.666 8A1.335 1.335 0 0 1 4 6.666h24A1.33 1.33 0 0 1 29.333 8 1.333 1.333 0 0 1 28 9.334H4A1.335 1.335 0 0 1 2.666 8zm0 8.043A1.33 1.33 0 0 1 4 14.71h24a1.333 1.333 0 1 1 0 2.666H4a1.333 1.333 0 0 1-1.334-1.333zM4 22.752a1.337 1.337 0 0 0-1.334 1.333A1.33 1.33 0 0 0 4 25.418h24a1.333 1.333 0 1 0 0-2.666H4z"/></symbol><symbol id="alert" viewBox="0 0 32 32"><path fill="none" stroke="#ff705d" style="stroke:var(--color1,#ff705d)" stroke-linejoin="round" stroke-linecap="round" stroke-width="2.285" d="M16 11.429v6.856m0 8a1.144 1.144 0 1 0-.003-2.286H16a1.144 1.144 0 0 0-.003 2.286H16z"/><path fill="none" stroke="#ff705d" style="stroke:var(--color1,#ff705d)" stroke-linejoin="round" stroke-linecap="round" stroke-width="2.285" d="M18.035 2.4a2.284 2.284 0 0 0-4.06-.012l-.006.013L1.396 27.542a2.285 2.285 0 0 0 2.034 3.314h25.144a2.285 2.285 0 0 0 2.028-3.325l.006.013L18.035 2.397z"/></symbol><symbol id="modal-close" viewBox="0 0 32 32"><path d="M23.734 10.304 22.23 8.8l-5.963 5.962L10.305 8.8l-1.504 1.504 5.962 5.962-5.962 5.963 1.504 1.504 5.962-5.963 5.963 5.963 1.504-1.504-5.963-5.963 5.963-5.962z"/></symbol><symbol id="check-mark" viewBox="0 0 32 32"><path d="M28 1 9.4 21.454 4 17.364H1L9.4 31 31 1z"/></symbol></defs></svg>