<svg aria-hidden="true" style="position:absolute;width:0;height:0;overflow:hidden" xmlns="http://www.w3.org/2000/svg">
  <defs>
    <symbol id="star" viewBox="0 0 32 32">
      <path d="M13.902 2.7c.527-1.23 2.321-1.23 2.848 0l3.109 7.257a1.54 1.54 0 0 0 1.301.917l8.071.628c1.367.106 1.922 1.763.88 2.629l-6.149 5.113a1.471 1.471 0 0 0-.497 1.484l1.879 7.645c.318 1.295-1.133 2.319-2.304 1.625l-6.91-4.097a1.58 1.58 0 0 0-1.608 0l-6.91 4.097c-1.171.694-2.622-.33-2.304-1.625l1.879-7.645a1.471 1.471 0 0 0-.497-1.484L.541 14.131c-1.042-.866-.487-2.523.88-2.629l8.071-.628a1.54 1.54 0 0 0 1.301-.917L13.902 2.7z"/>
    </symbol>
    <symbol id="rightArrow" viewBox="0 0 18 32">
      <path d="M17.653 15.035l-14.862-14.16c-0.239-0.228-0.563-0.368-0.92-0.368s-0.681 0.14-0.921 0.369l0.001-0-0.016 0.016c-0.235 0.224-0.382 0.539-0.382 0.889s0.146 0.665 0.381 0.889l0 0 13.995 13.333-13.995 13.328c-0.236 0.224-0.383 0.54-0.383 0.89s0.147 0.666 0.382 0.889l0.001 0 0.016 0.016c0.239 0.228 0.563 0.368 0.92 0.368s0.681-0.14 0.921-0.369l-0.001 0 14.862-14.16c0.255-0.243 0.413-0.586 0.413-0.965s-0.158-0.722-0.413-0.965l-0-0z"></path>
    </symbol>   
    <symbol id="leftArrow" viewBox="0 0 18 32">
      <path d="M0.48 16.965l14.862 14.16c0.239 0.228 0.563 0.368 0.92 0.368s0.681-0.14 0.921-0.369l-0.001 0 0.016-0.016c0.236-0.224 0.382-0.54 0.382-0.89s-0.147-0.666-0.382-0.889l-0.001-0-13.995-13.333 13.995-13.327c0.236-0.224 0.382-0.54 0.382-0.89s-0.147-0.666-0.382-0.889l-0.001-0-0.016-0.016c-0.239-0.228-0.563-0.368-0.92-0.368s-0.681 0.14-0.921 0.369l0.001-0-14.862 14.16c-0.255 0.243-0.413 0.586-0.413 0.965s0.158 0.722 0.413 0.965l0.001 0z"></path>
    </symbol>    
    <symbol id="delivery" viewBox="0 0 32 32">
      <path fill="#fff" style="fill: var(--color1, #fff)" d="M32 16c0 8.837-7.163 16-16 16s-16-7.163-16-16c0-8.837 7.163-16 16-16s16 7.163 16 16z"></path>
      <path fill="#7eb101" style="fill: var(--color2, #7eb101)" d="M9.489 14.422l2.356 1c0.267-0.533 0.552-1.059 0.856-1.578s0.626-1.015 0.967-1.489l-1.756-0.356-2.422 2.422zM12.911 16.222l2.956 2.956c0.844-0.385 1.637-0.822 2.378-1.311s1.341-0.963 1.8-1.422c1.2-1.2 2.081-2.43 2.644-3.689s0.867-2.682 0.911-4.267c-1.585 0.044-3.007 0.348-4.267 0.911s-2.489 1.444-3.689 2.644c-0.459 0.459-0.933 1.059-1.422 1.8s-0.926 1.533-1.311 2.378zM18 14.089c-0.296-0.296-0.444-0.663-0.444-1.1s0.148-0.804 0.444-1.1c0.296-0.296 0.663-0.444 1.1-0.444s0.804 0.148 1.1 0.444c0.296 0.296 0.444 0.663 0.444 1.1s-0.148 0.804-0.444 1.1c-0.296 0.296-0.663 0.444-1.1 0.444s-0.804-0.148-1.1-0.444zM17.667 22.6l2.422-2.422-0.356-1.756c-0.474 0.341-0.97 0.663-1.489 0.967s-1.044 0.589-1.578 0.856l1 2.356zM24.911 7.178c0.133 2.015-0.119 3.852-0.756 5.511s-1.689 3.222-3.156 4.689l-0.089 0.089 0.489 2.444c0.044 0.222 0.033 0.437-0.033 0.644s-0.181 0.393-0.344 0.556l-3.8 3.822-1.889-4.4-3.778-3.778-4.4-1.889 3.822-3.8c0.163-0.163 0.348-0.278 0.556-0.344s0.422-0.078 0.644-0.033l2.444 0.489c0.015-0.015 0.030-0.026 0.044-0.033s0.030-0.019 0.044-0.033c1.467-1.467 3.030-2.522 4.689-3.167s3.496-0.9 5.511-0.767v0zM8.644 19.444c0.518-0.519 1.152-0.781 1.9-0.789s1.381 0.248 1.9 0.767c0.518 0.518 0.774 1.152 0.767 1.9s-0.27 1.381-0.789 1.9c-0.385 0.385-0.981 0.704-1.789 0.956s-2.019 0.489-3.633 0.711c0.222-1.615 0.456-2.83 0.7-3.644s0.559-1.415 0.944-1.8v0zM9.578 20.4c-0.207 0.222-0.393 0.57-0.556 1.044s-0.304 1.081-0.422 1.822c0.741-0.118 1.348-0.259 1.822-0.422s0.822-0.348 1.044-0.556c0.281-0.252 0.426-0.567 0.433-0.944s-0.122-0.707-0.389-0.989c-0.282-0.267-0.611-0.396-0.989-0.389s-0.693 0.152-0.944 0.433z"></path>
    </symbol>
    <symbol id="order" viewBox="0 0 32 32">
      <path fill="#fff" style="fill: var(--color1, #fff)" d="M32 16c0 8.837-7.163 16-16 16s-16-7.163-16-16c0-8.837 7.163-16 16-16s16 7.163 16 16z"></path>
      <path fill="#7eb101" style="fill: var(--color2, #7eb101)" d="M15.667 6.222c1.349 0 2.5 0.471 3.456 1.411s1.433 2.085 1.433 3.433c0 0.77-0.167 1.496-0.5 2.178-0.343 0.694-0.82 1.273-1.4 1.725l-0.011 0.008h-0.755v-1.111c0.418-0.33 0.752-0.747 0.98-1.224l0.009-0.021c0.218-0.451 0.345-0.981 0.345-1.54 0-0.005 0-0.011-0-0.016v0.001c0-0.978-0.349-1.807-1.045-2.489s-1.533-1.023-2.511-1.023c-0.977 0-1.815 0.341-2.511 1.023s-1.045 1.511-1.045 2.489c0 0.548 0.115 1.067 0.345 1.555 0.236 0.498 0.571 0.915 0.981 1.239l0.007 0.005v1.6c-0.818-0.422-1.482-1.043-1.943-1.801l-0.012-0.021c-0.447-0.724-0.711-1.602-0.711-2.541 0-0.013 0-0.026 0-0.039v0.002c0-1.348 0.478-2.493 1.433-3.433s2.107-1.411 3.455-1.411zM14.823 24.889c-0.252 0-0.489-0.048-0.711-0.144-0.224-0.097-0.416-0.228-0.578-0.389l-4.577-4.577 1.244-1.289c0.207-0.207 0.441-0.367 0.7-0.477 0.143-0.064 0.309-0.101 0.485-0.101 0.116 0 0.229 0.016 0.335 0.047l-0.009-0.002 1.733 0.4v-7.244c0-0.623 0.215-1.149 0.645-1.578s0.955-0.645 1.577-0.645c0.623 0 1.149 0.215 1.578 0.645s0.645 0.955 0.645 1.578v3.822h0.577c0.074 0 0.141 0.015 0.2 0.045s0.127 0.059 0.2 0.089l3.289 1.6c0.355 0.163 0.618 0.426 0.789 0.789s0.219 0.737 0.145 1.123l-0.8 4.844c-0.071 0.431-0.298 0.8-0.619 1.053l-0.004 0.003c-0.308 0.256-0.707 0.411-1.143 0.411-0.004 0-0.009-0-0.013-0h-5.688zM14.645 23.555h6.245l0.955-5.533-4.067-2.022h-1.222v-4.889c0-0.267-0.082-0.482-0.245-0.645s-0.378-0.245-0.645-0.245-0.481 0.082-0.644 0.245c-0.163 0.163-0.245 0.378-0.245 0.645v8.867l-3.422-0.733-0.511 0.511 3.8 3.8zM20.889 23.555v0z"></path>
    </symbol>

    <symbol id="small-arrow" viewBox="0 0 34 32">
<path d="M21.931 15.709c0.353 0.353 0.353 0.924 0 1.277l-9.206 9.206c-0.353 0.353-0.924 0.353-1.277 0l-0.426-0.426c-0.353-0.353-0.353-0.924 0-1.277l8.142-8.142-8.142-8.142c-0.353-0.353-0.353-0.924 0-1.277l0.426-0.426c0.353-0.353 0.924-0.353 1.277 0l9.206 9.206z"></path>
</symbol>




    <symbol id="mob-menu-button" viewBox="0 0 32 32">
      <path d="M2.666 8A1.335 1.335 0 0 1 4 6.666h24A1.33 1.33 0 0 1 29.333 8 1.333 1.333 0 0 1 28 9.334H4A1.335 1.335 0 0 1 2.666 8zm0 8.043A1.33 1.33 0 0 1 4 14.71h24a1.333 1.333 0 1 1 0 2.666H4a1.333 1.333 0 0 1-1.334-1.333zM4 22.752a1.337 1.337 0 0 0-1.334 1.333A1.33 1.33 0 0 0 4 25.418h24a1.333 1.333 0 1 0 0-2.666H4z"/>
    </symbol>
    <symbol id="alert" viewBox="0 0 32 32">
      <path fill="none" stroke="#ff705d" style="stroke: var(--color1, #ff705d)" stroke-linejoin="round" stroke-linecap="round" stroke-miterlimit="4" stroke-width="2.2853" d="M16 11.429v6.856M16 26.285c0.017 0.001 0.036 0.001 0.055 0.001 0.632 0 1.144-0.512 1.144-1.144s-0.512-1.144-1.144-1.144c-0.019 0-0.039 0-0.058 0.001l0.003-0c-0.608 0.030-1.089 0.53-1.089 1.143s0.481 1.112 1.086 1.143l0.003 0z"></path>
      <path fill="none" stroke="#ff705d" style="stroke: var(--color1, #ff705d)" stroke-linejoin="round" stroke-linecap="round" stroke-miterlimit="4" stroke-width="2.2853" d="M18.035 2.4c-0.387-0.743-1.152-1.242-2.033-1.242s-1.646 0.499-2.027 1.23l-0.006 0.013-12.573 25.141c-0.154 0.3-0.245 0.654-0.245 1.029 0 1.26 1.020 2.282 2.279 2.285h25.144c1.259-0.004 2.278-1.026 2.278-2.285 0-0.374-0.090-0.728-0.25-1.040l0.006 0.013-12.573-25.147z"></path>
    </symbol>
    <symbol id="modal-close" viewBox="0 0 32 32">
      <path d="M23.734 10.304l-1.504-1.504-5.963 5.962-5.962-5.962-1.504 1.504 5.962 5.962-5.962 5.963 1.504 1.504 5.962-5.963 5.963 5.963 1.504-1.504-5.963-5.963 5.963-5.962z"></path>
    </symbol>
    <symbol id="check-mark" viewBox="0 0 32 32">
      <path d="M28 1l-18.6 20.454-5.4-4.090h-3l8.4 13.636 21.6-30z"></path>
    </symbol>    
  </defs>
</svg>
